<svg width="232" height="104" xmlns="http://www.w3.org/2000/svg"><path d="M4 96a4 4 0 1 1 0 8 4 4 0 0 1 0-8zm224 0a4 4 0 1 1 0 8 4 4 0 0 1 0-8zm-32 0a4 4 0 1 1 0 8 4 4 0 0 1 0-8zm-32 0a4 4 0 1 1 0 8 4 4 0 0 1 0-8zm-32 0a4 4 0 1 1 0 8 4 4 0 0 1 0-8zm-32 0a4 4 0 1 1 0 8 4 4 0 0 1 0-8zm-32 0a4 4 0 1 1 0 8 4 4 0 0 1 0-8zm-32 0a4 4 0 1 1 0 8 4 4 0 0 1 0-8zm192-32a4 4 0 1 1 0 8 4 4 0 0 1 0-8zM4 64a4 4 0 1 1 0 8 4 4 0 0 1 0-8zm32 0a4 4 0 1 1 0 8 4 4 0 0 1 0-8zm32 0a4 4 0 1 1 0 8 4 4 0 0 1 0-8zm32 0a4 4 0 1 1 0 8 4 4 0 0 1 0-8zm32 0a4 4 0 1 1 0 8 4 4 0 0 1 0-8zm32 0a4 4 0 1 1 0 8 4 4 0 0 1 0-8zm32 0a4 4 0 1 1 0 8 4 4 0 0 1 0-8zm32-32a4 4 0 1 1 0 8 4 4 0 0 1 0-8zm-32 0a4 4 0 1 1 0 8 4 4 0 0 1 0-8zm-32 0a4 4 0 1 1 0 8 4 4 0 0 1 0-8zm-32 0a4 4 0 1 1 0 8 4 4 0 0 1 0-8zm-32 0a4 4 0 1 1 0 8 4 4 0 0 1 0-8zm-32 0a4 4 0 1 1 0 8 4 4 0 0 1 0-8zm-32 0a4 4 0 1 1 0 8 4 4 0 0 1 0-8zM4 32a4 4 0 1 1 0 8 4 4 0 0 1 0-8zM36 0a4 4 0 1 1 0 8 4 4 0 0 1 0-8zm32 0a4 4 0 1 1 0 8 4 4 0 0 1 0-8zm32 0a4 4 0 1 1 0 8 4 4 0 0 1 0-8zm32 0a4 4 0 1 1 0 8 4 4 0 0 1 0-8zm32 0a4 4 0 1 1 0 8 4 4 0 0 1 0-8zm32 0a4 4 0 1 1 0 8 4 4 0 0 1 0-8zm32 0a4 4 0 1 1 0 8 4 4 0 0 1 0-8zM4 0a4 4 0 1 1 0 8 4 4 0 0 1 0-8z" fill="#54E6AF" fill-rule="evenodd"/></svg>